<svg xmlns="http://www.w3.org/2000/svg" width="1024" height="1024" viewBox="0 0 1024 1024">
<g>
<path d="M 419.00 880.92 C383.52,866.10 349.77,851.98 344.00,849.55 C338.23,847.11 323.60,840.99 311.50,835.94 C299.40,830.89 287.70,825.96 285.50,824.98 C284.95,824.74 282.89,823.87 279.61,822.49 C280.29,822.75 280.67,822.89 280.75,822.89 C281.48,822.96 282.00,821.83 282.00,820.22 C282.00,817.15 248.42,379.61 247.55,371.37 L 247.01 366.24 L 303.99 352.00 C336.17,343.96 361.96,338.00 363.24,338.31 C364.48,338.61 372.70,341.35 381.50,344.41 C405.03,352.58 443.60,362.00 453.52,362.00 C456.20,362.00 458.00,362.46 458.00,363.14 C458.00,363.97 463.30,364.08 478.02,363.55 L 498.03 362.82 L 501.64 365.99 C504.22,368.25 505.55,368.85 506.32,368.08 C506.92,367.48 508.32,366.99 509.45,366.98 C511.14,366.97 511.24,366.80 510.00,366.00 C509.17,365.47 507.46,365.02 506.19,365.02 C504.15,365.00 504.04,364.79 505.19,363.19 C506.64,361.19 523.43,346.00 532.00,338.94 C556.66,318.63 591.74,293.99 615.50,280.28 C626.84,273.73 647.78,263.57 658.00,259.66 C685.66,249.06 703.77,246.75 721.07,251.60 L 726.73 253.19 L 730.37 262.07 C734.46,272.09 736.44,282.99 735.03,287.88 C733.70,292.52 727.82,300.09 719.99,307.24 L 713.13 313.50 L 716.32 313.62 C718.07,313.69 718.70,313.54 717.71,313.29 C717.56,313.25 717.44,313.20 717.35,313.12 L 719.22 313.50 C722.54,314.17 727.45,315.57 732.00,317.14 C733.07,317.51 735.22,317.95 737.29,318.25 C736.23,318.30 735.02,318.63 734.50,319.01 C733.95,319.41 731.70,320.05 729.50,320.43 C712.94,323.31 691.45,328.49 686.00,330.92 C665.99,339.85 632.13,350.63 602.71,357.45 C574.82,363.91 563.26,365.35 536.22,365.75 C522.87,365.94 512.18,366.48 512.46,366.93 C513.15,368.04 509.20,369.56 499.50,371.90 C491.47,373.83 426.22,389.39 394.63,396.90 C385.34,399.11 377.49,401.18 377.16,401.51 C376.84,401.83 376.25,435.04 375.85,475.30 C375.45,515.56 374.65,571.67 374.06,600.00 C373.48,628.33 372.54,694.47 371.97,747.00 C371.41,799.53 370.84,846.56 370.72,851.53 L 370.50 860.56 L 427.00 884.22 C434.23,887.24 441.20,890.14 447.67,892.81 C438.93,889.22 429.19,885.18 419.00,880.92 ZM 510.88 336.28 C508.93,345.95 508.49,345.57 500.71,327.50 C469.88,255.89 460.24,201.26 472.13,165.50 C475.75,154.61 479.59,148.39 486.33,142.49 L 491.42 138.04 L 493.74 140.22 C495.01,141.42 497.99,146.25 500.36,150.95 C509.76,169.64 515.68,199.98 516.67,234.50 C517.51,263.48 514.34,319.04 510.88,336.28 ZM 478.74 337.21 C480.67,339.89 482.08,342.24 481.87,342.43 C481.27,342.98 459.47,338.35 444.95,334.59 C391.77,320.80 353.69,302.66 331.44,280.52 C317.00,266.15 311.00,255.15 311.00,243.02 L 311.00 237.00 L 317.75 237.00 C335.93,237.01 372.07,252.01 401.00,271.58 C430.34,291.41 473.08,325.52 474.60,330.32 C474.95,331.42 476.82,334.52 478.74,337.21 ZM 738.72 318.44 C738.81,318.45 738.91,318.46 739.00,318.47 C743.92,318.97 860.63,344.74 865.65,346.41 C860.85,344.86 751.66,320.82 738.72,318.44 ZM 201.32 789.83 C182.29,781.82 168.79,776.01 168.33,775.58 C168.29,775.55 168.25,775.39 168.21,775.11 C170.72,776.52 183.70,782.28 201.32,789.83 ZM 166.17 724.07 C165.44,699.22 164.52,664.52 163.35,618.14 C164.40,658.48 165.39,695.92 166.17,724.07 ZM 865.81 346.47 C865.81,346.47 865.81,346.48 865.81,346.48 C865.99,346.66 864.96,365.37 863.30,392.76 C864.95,365.43 865.98,346.73 865.81,346.47 Z" fill="rgba(200,6,3,1)"/>
<path d="M 478.74 337.21 C476.92,334.67 475.16,331.76 474.67,330.51 C475.37,331.44 475.99,332.34 476.57,333.27 C478.54,336.42 480.33,339.00 480.55,339.00 C480.77,339.00 478.46,334.39 475.42,328.75 C454.77,290.48 440.34,247.50 435.40,209.56 L 433.84 197.55 L 428.17 191.21 L 434.00 197.06 L 434.03 184.78 C434.09,164.21 437.50,150.65 445.59,138.78 C451.31,130.38 455.62,126.57 463.40,122.99 C464.36,122.55 465.29,122.14 466.20,121.75 C465.18,122.49 466.23,122.94 469.07,123.40 C478.11,124.84 486.65,130.83 493.67,140.16 L 491.42 138.04 L 486.33 142.49 C479.59,148.39 475.75,154.61 472.13,165.50 C460.24,201.26 469.88,255.89 500.71,327.50 C505.64,338.94 507.62,343.29 508.91,342.49 C508.30,344.78 507.64,347.01 506.92,349.25 C504.36,357.23 501.98,363.00 501.25,363.00 C499.71,363.00 499.68,363.96 500.99,365.41 L 498.03 362.82 L 478.02 363.55 C463.30,364.08 458.00,363.97 458.00,363.14 C458.00,362.46 456.20,362.00 453.52,362.00 C443.60,362.00 405.03,352.58 381.50,344.41 C372.70,341.35 364.48,338.61 363.24,338.31 C362.11,338.03 341.90,342.64 315.05,349.26 C339.88,343.00 359.00,337.97 359.66,337.49 C360.72,336.73 358.69,335.41 351.28,332.06 C339.87,326.89 328.20,320.53 318.88,314.39 L 312.27 310.02 L 306.09 311.28 C308.12,310.86 309.38,310.59 309.73,310.51 C311.72,310.03 311.10,309.16 303.82,302.24 C292.69,291.65 287.93,284.90 284.08,274.21 C281.28,266.45 280.89,264.26 281.28,258.35 C281.60,253.60 281.85,250.89 282.41,248.22 C282.38,248.52 282.39,248.72 282.45,248.79 C282.70,249.04 284.78,247.63 287.07,245.68 C301.52,233.31 321.32,233.40 353.11,245.99 C361.68,249.39 370.39,253.52 379.49,258.54 C355.91,245.73 331.61,237.01 317.75,237.00 L 311.00 237.00 L 311.00 243.02 C311.00,255.15 317.00,266.15 331.44,280.52 C353.69,302.66 391.77,320.80 444.95,334.59 C459.47,338.35 481.27,342.98 481.87,342.43 C482.08,342.24 480.67,339.89 478.74,337.21 ZM 683.05 332.21 C680.33,333.40 677.71,334.53 676.50,335.03 C673.51,336.27 673.52,336.28 681.50,338.71 C719.71,350.37 763.75,364.55 764.85,365.55 C765.00,365.68 765.14,365.80 765.16,365.94 C765.29,367.09 756.13,369.32 663.25,391.94 L 617.99 402.97 L 612.75 401.02 C609.86,399.96 586.88,392.09 561.68,383.54 L 515.86 367.99 L 503.68 370.91 C499.52,371.90 492.07,373.68 482.89,375.87 C491.29,373.86 497.38,372.41 499.50,371.90 C509.20,369.56 513.15,368.04 512.46,366.93 C512.18,366.48 522.87,365.94 536.22,365.75 C563.26,365.35 574.82,363.91 602.71,357.45 C630.73,350.95 662.78,340.86 683.05,332.21 ZM 738.62 260.41 C739.33,263.29 739.46,266.24 739.48,272.00 C739.50,282.12 739.37,282.73 736.00,288.96 C734.06,292.54 728.80,299.31 724.21,304.13 C717.64,311.04 716.30,312.93 717.71,313.29 C718.70,313.54 718.07,313.69 716.32,313.62 L 713.13 313.50 L 719.99 307.24 C727.82,300.09 733.70,292.52 735.03,287.88 C736.44,282.99 734.46,272.09 730.37,262.07 L 727.04 253.94 C729.20,254.95 731.22,256.12 733.07,257.46 C735.89,259.48 738.36,260.98 738.55,260.78 C738.61,260.72 738.63,260.60 738.62,260.41 ZM 543.00 367.10 C539.93,367.67 541.99,367.78 549.50,367.47 C555.55,367.22 562.08,366.59 564.00,366.07 C568.27,364.92 549.98,365.82 543.00,367.10 ZM 504.96 364.94 C505.24,364.99 505.65,365.01 506.19,365.02 C507.46,365.02 509.17,365.47 510.00,366.00 C511.24,366.80 511.14,366.97 509.45,366.98 C508.32,366.99 506.92,367.48 506.32,368.08 C506.11,368.29 505.85,368.40 505.54,368.40 C505.67,368.22 505.76,367.91 505.85,367.47 C506.04,366.52 505.73,365.45 505.17,365.10 C505.09,365.05 505.02,365.00 504.96,364.94 ZM 514.12 201.82 C517.04,223.06 517.57,246.60 516.07,277.00 C515.54,287.88 515.00,296.95 514.41,304.72 C516.14,281.59 517.20,252.76 516.67,234.50 C516.35,223.06 515.47,212.07 514.12,201.82 ZM 402.46 272.57 C413.74,280.07 425.77,288.88 438.86,299.22 C426.92,289.97 413.79,280.29 402.46,272.57 ZM 375.16 161.13 C383.87,160.73 392.22,162.97 400.89,168.03 C392.25,163.22 383.70,160.93 375.16,161.13 ZM 728.05 239.17 C731.55,244.33 734.42,249.50 736.53,254.52 C737.06,255.78 737.49,256.87 737.85,257.89 C736.07,253.34 731.54,244.57 728.05,239.17 ZM 545.55 121.08 C562.11,125.55 576.86,132.26 585.35,140.05 C588.72,143.15 591.57,146.72 593.87,150.70 C589.12,142.67 581.98,136.24 572.35,131.27 C564.27,127.10 555.12,123.68 545.55,121.08 ZM 594.81 293.08 C576.71,304.89 556.31,319.55 539.33,333.02 C548.24,325.90 557.83,318.71 569.50,310.35 C578.21,304.10 586.64,298.35 594.81,293.08 ZM 336.25 177.23 C341.61,173.40 347.01,170.11 352.29,167.57 C354.05,166.72 355.79,165.95 357.49,165.26 C350.76,168.12 343.14,172.37 336.25,177.23 ZM 651.76 262.23 C644.73,265.28 635.74,269.58 627.71,273.70 C635.97,269.33 643.97,265.52 651.76,262.23 ZM 301.55 210.92 C308.90,201.41 317.78,192.17 327.14,184.31 C317.98,192.06 308.94,201.51 301.55,210.92 ZM 524.38 345.44 C517.38,351.56 509.47,358.77 506.40,361.87 C508.16,359.93 511.46,356.86 517.00,351.92 C519.49,349.70 521.94,347.55 524.38,345.44 ZM 692.08 250.01 C683.77,251.20 674.57,253.66 663.91,257.47 C667.90,256.02 671.85,254.72 675.74,253.56 C681.34,251.90 686.82,250.72 692.08,250.01 ZM 497.89 115.35 C509.93,114.81 523.28,116.13 536.07,118.81 C523.23,116.13 510.02,114.92 497.89,115.35 ZM 690.22 200.89 C699.27,207.55 707.68,215.02 714.93,222.82 C707.58,214.97 699.06,207.44 690.22,200.89 ZM 500.24 150.72 C502.82,155.73 505.04,161.29 506.82,167.32 C504.91,161.19 502.74,155.70 500.36,150.95 C500.32,150.88 500.28,150.80 500.24,150.72 ZM 283.55 243.91 C283.82,243.03 284.12,242.07 284.47,241.00 C285.11,239.07 285.87,237.09 286.75,235.08 C285.57,238.00 284.38,241.29 283.55,243.91 ZM 641.49 178.32 C647.35,178.94 653.32,180.51 659.52,183.04 C656.30,181.74 653.18,180.69 650.22,179.93 C647.25,179.17 644.35,178.63 641.49,178.32 ZM 247.01 366.24 L 247.01 366.24 L 258.37 363.41 L 247.01 366.24 Z" fill="rgba(230,40,32,1)"/>
<path d="M 736.00 828.25 C736.00,828.66 736.30,829.00 736.68,829.00 C737.31,829.00 770.93,818.38 817.54,803.45 L 830.09 799.43 L 828.54 799.94 C818.16,803.35 697.06,841.85 659.00,853.84 C644.97,858.26 600.74,872.25 560.70,884.94 C520.66,897.62 486.91,907.97 485.70,907.94 C487.63,907.99 631.51,862.82 632.47,861.86 C632.68,861.65 631.77,826.16 630.45,782.99 C629.14,739.82 626.26,643.53 624.06,569.00 C621.85,494.48 619.75,426.68 619.39,418.34 L 618.74 403.17 L 618.10 402.94 L 663.25 391.94 C756.13,369.32 765.29,367.09 765.16,365.94 C765.14,365.80 765.00,365.68 764.85,365.55 C764.37,365.11 755.65,362.15 742.80,357.97 C757.36,362.61 768.54,366.21 768.69,366.35 C768.90,366.57 767.68,386.71 765.97,411.12 C761.80,470.92 743.86,720.88 739.51,780.00 C737.58,806.12 736.00,827.84 736.00,828.25 ZM 502.75 367.02 C499.83,364.72 499.19,363.00 501.25,363.00 C501.98,363.00 504.36,357.23 506.92,349.25 C512.11,333.11 514.07,317.61 516.07,277.00 C517.29,252.32 517.16,232.15 515.51,214.07 C516.08,220.04 516.47,226.12 516.69,232.25 L 517.31 250.00 L 526.94 240.66 C532.24,235.52 539.42,229.22 542.90,226.65 C553.57,218.80 565.45,214.14 570.31,215.91 C571.93,216.50 571.77,217.01 568.74,221.03 C564.99,226.00 552.95,245.10 551.12,249.00 L 549.94 251.50 L 551.66 249.14 C552.61,247.85 556.66,242.34 560.67,236.89 L 567.96 227.00 L 575.73 227.02 C588.23,227.06 593.76,230.64 597.62,241.18 C600.03,247.75 600.51,266.41 598.59,278.93 C597.72,284.66 597.00,289.72 597.00,290.18 C597.00,290.44 596.99,290.65 597.09,290.75 C597.46,291.12 599.32,289.98 608.57,284.41 C613.52,281.42 618.76,278.47 624.11,275.62 C607.11,284.84 589.01,296.36 569.50,310.35 C547.82,325.88 533.32,337.37 517.00,351.92 C505.84,361.88 503.74,364.22 505.17,365.10 C505.73,365.45 506.04,366.52 505.85,367.47 C505.53,369.03 505.24,368.98 502.75,367.02 ZM 730.30 255.65 C717.62,248.20 698.76,247.19 678.02,252.91 C680.74,252.08 682.97,251.26 683.34,250.94 C683.80,250.54 681.33,249.91 677.84,249.54 C655.52,247.16 634.66,242.38 624.69,237.36 C612.00,230.96 607.29,224.11 608.38,213.66 C609.19,205.84 612.67,198.72 618.43,193.07 L 622.95 188.64 L 632.22 188.70 C639.51,188.75 643.23,189.34 649.59,191.46 C659.63,194.81 672.18,201.51 684.25,209.99 C695.00,217.52 716.92,239.03 721.99,247.01 C724.10,250.32 726.71,253.05 730.30,255.65 ZM 512.49 191.56 C511.10,183.90 509.38,176.46 507.30,169.00 C501.22,147.18 489.47,131.11 475.87,125.37 C479.26,126.41 481.45,126.45 486.53,125.80 C500.99,123.93 527.78,127.35 546.32,133.42 C566.27,139.95 580.55,149.25 586.67,159.70 C588.84,163.41 589.17,164.92 588.68,169.02 C587.41,179.75 577.67,193.05 568.53,196.54 C555.71,201.44 537.15,191.57 514.58,167.85 C508.76,161.74 504.00,156.97 504.00,157.26 C504.00,157.55 504.88,160.65 505.96,164.14 C508.59,172.66 510.78,181.88 512.49,191.56 ZM 352.97 245.94 C323.61,234.33 304.49,233.40 290.36,243.13 C291.44,242.20 292.43,241.29 293.19,240.50 C294.25,239.40 297.88,234.23 301.26,229.00 C309.66,215.99 329.87,195.79 343.54,186.73 C359.43,176.20 368.10,173.03 381.12,173.01 L 388.75 173.00 L 392.96 177.57 C402.29,187.70 406.11,203.73 401.42,213.08 C395.63,224.61 372.44,233.78 339.59,237.51 C332.51,238.32 332.89,238.63 346.97,243.63 C348.85,244.30 350.86,245.07 352.97,245.94 ZM 476.57 333.27 C472.71,327.10 467.33,322.12 445.50,304.52 C431.54,293.26 418.80,283.69 406.90,275.56 C411.53,278.66 414.95,280.86 415.25,280.90 C415.46,280.93 415.62,280.97 415.74,280.92 C416.14,280.71 415.88,279.19 414.58,270.74 C408.79,233.16 414.18,214.99 431.48,213.83 C434.96,213.59 435.00,213.54 434.99,209.05 C434.99,207.99 434.98,207.03 434.96,206.14 L 435.40 209.56 C440.34,247.50 454.77,290.48 475.42,328.75 C478.46,334.39 480.77,339.00 480.55,339.00 C480.33,339.00 478.54,336.42 476.57,333.27 ZM 543.00 367.10 C549.98,365.82 568.27,364.92 564.00,366.07 C562.08,366.59 555.55,367.22 549.50,367.47 C541.99,367.78 539.93,367.67 543.00,367.10 ZM 434.16 200.03 C432.93,196.12 429.84,192.88 422.10,185.13 C414.75,177.76 407.88,172.14 401.19,168.20 C409.78,173.03 418.45,180.35 427.25,190.19 L 433.84 197.55 L 434.16 200.03 ZM 314.29 196.36 C320.38,190.08 326.89,184.22 333.29,179.39 C335.68,177.59 338.19,175.85 340.75,174.21 C331.80,180.13 322.62,187.87 314.29,196.36 ZM 357.45 165.28 C361.28,163.66 364.82,162.49 367.80,161.92 C370.38,161.43 372.95,161.17 375.53,161.13 C369.72,161.35 363.76,162.75 357.45,165.28 ZM 401.50 271.90 C402.10,272.31 402.69,272.71 403.27,273.10 C398.33,269.81 393.54,266.76 388.86,263.95 C393.46,266.65 397.77,269.35 401.50,271.90 ZM 600.96 396.93 C591.20,393.59 576.81,388.68 561.68,383.54 L 515.86 367.99 L 561.68 383.54 C576.89,388.70 591.30,393.61 600.96,396.93 ZM 738.59 260.73 C738.58,260.75 738.57,260.77 738.55,260.78 C738.39,260.95 736.58,259.89 734.30,258.32 C736.60,259.78 738.34,260.76 738.59,260.73 ZM 466.22 121.74 C467.10,121.12 469.41,120.30 473.34,119.10 C469.91,120.15 467.48,121.06 466.22,121.74 ZM 470.05 123.57 C469.73,123.51 469.40,123.45 469.07,123.40 C468.28,123.27 467.63,123.14 467.13,123.01 C467.80,123.07 468.85,123.27 470.05,123.57 ZM 727.14 237.80 C729.49,241.19 732.54,246.67 734.91,251.44 C732.51,246.63 729.42,241.10 727.14,237.80 ZM 283.73 248.23 C283.04,248.68 282.56,248.90 282.45,248.79 C282.45,248.79 282.45,248.78 282.45,248.78 C282.57,248.88 283.04,248.66 283.73,248.23 ZM 673.46 254.26 C672.44,254.57 671.42,254.90 670.40,255.23 C671.44,254.89 672.46,254.56 673.46,254.26 Z" fill="rgba(253,96,86,1)"/>
<path d="M 597.00 290.18 C597.00,289.72 597.72,284.66 598.59,278.93 C600.51,266.41 600.03,247.75 597.62,241.18 C593.76,230.64 588.23,227.06 575.73,227.02 L 567.96 227.00 L 560.67 236.89 C556.66,242.34 552.61,247.85 551.66,249.14 L 549.94 251.50 L 551.12 249.00 C552.95,245.10 564.99,226.00 568.74,221.03 C571.77,217.01 571.93,216.50 570.31,215.91 C565.45,214.14 553.57,218.80 542.90,226.65 C539.42,229.22 532.24,235.52 526.94,240.66 L 517.31 250.00 L 516.69 232.25 C515.82,207.69 512.10,184.03 505.96,164.14 C504.88,160.65 504.00,157.55 504.00,157.26 C504.00,156.97 508.76,161.74 514.58,167.85 C537.15,191.57 555.71,201.44 568.53,196.54 C577.67,193.05 587.41,179.75 588.68,169.02 C589.17,164.92 588.84,163.41 586.67,159.70 C580.55,149.25 566.27,139.95 546.32,133.42 C527.78,127.35 500.99,123.93 486.53,125.80 C480.72,126.55 478.69,126.39 474.31,124.85 C471.42,123.83 468.05,123.00 466.82,123.00 C463.19,123.00 465.93,121.36 473.34,119.10 C500.11,110.92 543.20,116.22 572.35,131.27 C591.67,141.25 601.00,157.10 601.00,179.97 L 601.00 188.62 L 608.75 184.82 C623.15,177.75 635.86,176.26 650.22,179.93 C674.74,186.20 709.60,212.42 727.14,237.80 C731.70,244.40 739.45,259.88 738.61,260.72 C738.45,260.89 735.42,259.10 731.90,256.76 C727.47,253.82 724.40,250.80 721.99,247.01 C716.92,239.03 695.00,217.52 684.25,209.99 C672.18,201.51 659.63,194.81 649.59,191.46 C643.23,189.34 639.51,188.75 632.22,188.70 L 622.95 188.64 L 618.43 193.07 C612.67,198.72 609.19,205.84 608.38,213.66 C607.29,224.11 612.00,230.96 624.69,237.36 C634.66,242.38 655.52,247.16 677.84,249.54 C681.33,249.91 683.80,250.54 683.34,250.94 C682.88,251.34 679.58,252.49 676.00,253.51 C657.88,258.65 630.39,271.24 608.57,284.41 C599.32,289.98 597.46,291.12 597.09,290.75 C596.99,290.65 597.00,290.44 597.00,290.18 ZM 401.50 271.90 C386.53,261.65 362.23,249.05 346.97,243.63 C332.89,238.63 332.51,238.32 339.59,237.51 C372.44,233.78 395.63,224.61 401.42,213.08 C406.11,203.73 402.29,187.70 392.96,177.57 L 388.75 173.00 L 381.12 173.01 C368.10,173.03 359.43,176.20 343.54,186.73 C329.87,195.79 309.66,215.99 301.26,229.00 C297.88,234.23 294.25,239.40 293.19,240.50 C290.04,243.76 282.92,249.25 282.44,248.78 C281.81,248.15 286.31,235.27 289.01,229.98 C300.92,206.61 329.24,178.68 352.29,167.57 C377.79,155.28 397.18,160.15 422.10,185.13 C434.53,197.59 434.96,198.39 434.99,209.05 C435.00,213.54 434.96,213.59 431.48,213.83 C414.18,214.99 408.79,233.16 414.58,270.74 C415.88,279.19 416.14,280.71 415.74,280.92 C415.62,280.97 415.46,280.93 415.25,280.90 C414.84,280.84 408.65,276.79 401.50,271.90 Z" fill="rgba(255,134,118,1)"/>
<path d="M 224.00 799.45 C193.48,786.62 168.17,775.53 167.77,774.81 C167.23,773.86 159.93,489.00 157.66,385.45 C158.12,394.73 158.77,400.64 159.47,400.37 C161.95,399.42 199.98,434.34 223.50,459.17 C230.10,466.13 236.06,471.87 236.75,471.92 C236.93,471.93 237.10,471.95 237.24,471.90 C238.38,471.50 237.98,466.68 234.18,418.17 C232.14,392.15 230.80,370.32 231.20,369.67 C231.74,368.82 233.98,369.23 239.51,371.22 C244.90,373.15 247.13,373.69 247.64,372.33 C249.71,396.47 282.00,817.21 282.00,820.22 C282.00,821.83 281.48,822.96 280.75,822.89 C280.06,822.83 254.52,812.29 224.00,799.45 ZM 427.00 884.22 L 370.50 860.56 L 370.72 851.53 C370.84,846.56 371.41,799.53 371.97,747.00 C372.54,694.47 373.48,628.33 374.06,600.00 C374.20,593.61 374.34,585.80 374.49,577.08 C374.13,622.74 374.06,659.46 374.59,659.84 C375.09,660.20 376.29,661.85 377.26,663.50 C378.22,665.15 385.25,676.85 392.88,689.50 C425.70,743.95 450.31,794.21 470.36,847.74 C480.08,873.70 480.81,876.75 481.19,893.00 C481.34,899.46 481.80,905.11 482.28,906.77 C474.03,903.66 452.02,894.69 427.00,884.22 ZM 623.31 543.83 C623.55,552.08 623.80,560.50 624.06,569.00 C626.26,643.53 629.14,739.82 630.45,782.99 C631.77,826.16 632.68,861.65 632.47,861.86 C632.43,861.90 632.10,862.03 631.51,862.25 L 631.80 857.22 C632.15,851.15 631.98,851.08 623.67,853.94 C615.85,856.63 615.00,855.67 614.99,844.18 C614.99,839.41 613.88,799.72 612.52,756.00 C609.47,657.58 609.39,652.03 610.99,648.93 C612.52,645.95 623.21,631.63 624.25,631.17 C624.66,630.98 625.01,625.36 625.03,618.67 C625.05,612.09 624.25,578.93 623.31,543.83 ZM 256.44 321.34 L 312.27 310.02 L 318.88 314.39 C328.20,320.53 339.87,326.89 351.28,332.06 C358.69,335.41 360.72,336.73 359.66,337.49 C358.90,338.05 333.24,344.74 302.64,352.37 L 247.01 366.24 L 247.29 368.85 C247.26,368.74 247.23,368.62 247.19,368.50 C246.50,365.90 245.54,365.22 239.95,363.40 C236.08,362.14 233.50,360.75 233.50,359.90 C233.50,358.90 241.61,356.46 262.00,351.33 C277.67,347.39 290.50,343.72 290.50,343.17 C290.50,342.62 286.90,340.28 282.50,337.97 C267.93,330.31 258.71,324.52 258.23,322.72 C257.97,321.77 257.28,321.25 256.44,321.34 ZM 619.00 409.20 L 619.39 418.34 C619.54,421.61 619.94,434.03 620.52,452.43 C620.48,451.74 620.45,451.35 620.43,451.27 C619.77,448.98 617.41,451.03 612.02,458.56 C609.07,462.68 606.18,465.89 605.58,465.70 C603.93,465.15 603.16,457.93 603.07,442.37 C603.02,431.78 603.33,427.97 604.33,427.14 C605.06,426.54 608.66,425.11 612.33,423.98 L 619.00 421.92 L 619.00 409.20 ZM 386.59 398.87 C389.01,398.26 391.75,397.59 394.63,396.90 C414.99,392.06 486.71,374.96 503.68,370.91 L 515.86 367.99 L 535.66 374.71 C521.53,370.08 520.11,370.17 517.04,370.96 C514.58,371.59 507.83,372.59 502.04,373.18 C495.83,373.81 475.89,377.88 453.50,383.09 C420.84,390.68 398.25,396.01 386.59,398.87 ZM 577.03 388.76 C595.67,395.11 610.67,400.25 613.12,401.13 L 615.38 401.96 L 614.45 401.64 C611.27,400.55 609.17,400.37 607.46,401.02 C604.41,402.17 602.73,401.56 601.48,398.83 C600.84,397.45 595.64,395.23 577.03,388.76 ZM 690.70 329.27 C687.96,330.16 685.70,331.05 683.72,332.00 C678.26,334.59 677.16,335.48 678.07,336.59 C678.70,337.34 684.45,339.59 690.85,341.58 C725.57,352.40 768.35,366.01 768.69,366.35 C768.34,366.01 701.85,344.93 681.50,338.71 C673.52,336.28 673.51,336.27 676.50,335.03 C678.15,334.35 682.42,332.50 686.00,330.91 C687.03,330.45 688.65,329.89 690.70,329.27 ZM 157.00 351.95 C156.99,350.81 156.98,349.94 156.98,349.34 L 157.00 341.18 L 161.25 340.48 C163.59,340.09 198.52,333.08 238.88,324.90 L 256.11 321.41 C254.99,321.71 232.42,326.31 205.75,331.67 L 157.00 341.47 L 157.00 351.95 ZM 788.28 329.01 C761.73,323.25 738.37,318.31 737.50,318.41 C736.40,318.54 734.83,318.92 734.00,319.27 C733.98,319.28 733.95,319.29 733.91,319.30 C734.18,319.19 734.38,319.09 734.50,319.01 C735.05,318.60 736.40,318.26 737.50,318.25 C738.51,318.23 761.81,323.22 788.28,329.01 ZM 728.40 320.63 C726.37,321.07 723.97,321.56 721.50,322.05 C716.20,323.08 711.61,324.02 707.59,324.90 C714.38,323.34 721.76,321.81 728.40,320.63 ZM 376.59 420.24 C376.81,408.73 377.01,401.65 377.16,401.51 C377.18,401.48 377.24,401.45 377.33,401.42 C377.11,402.43 376.85,409.31 376.59,420.24 ZM 613.23 868.25 C604.46,871.06 593.37,874.59 581.41,878.37 L 613.23 868.25 Z" fill="rgba(254,170,0,1)"/>
<path d="M 482.50 907.23 C481.95,906.83 481.36,900.46 481.19,893.00 C480.81,876.75 480.08,873.70 470.36,847.74 C450.31,794.21 425.70,743.95 392.88,689.50 C385.25,676.85 378.22,665.15 377.26,663.50 C376.29,661.85 375.09,660.20 374.59,659.84 C373.19,658.83 375.95,402.72 377.37,401.29 C377.81,400.86 404.17,394.56 453.50,383.09 C475.89,377.88 495.83,373.81 502.04,373.18 C507.83,372.59 514.58,371.59 517.04,370.96 C521.40,369.84 522.41,370.13 561.00,383.26 C592.85,394.10 600.69,397.12 601.48,398.83 C602.73,401.56 604.41,402.17 607.46,401.02 C609.17,400.37 611.27,400.55 614.45,401.64 L 619.00 403.19 L 619.00 412.55 L 619.00 421.92 L 612.33 423.98 C608.66,425.11 605.06,426.54 604.33,427.14 C603.33,427.97 603.02,431.78 603.07,442.37 C603.16,457.93 603.93,465.15 605.58,465.70 C606.18,465.89 609.07,462.68 612.02,458.56 C617.41,451.03 619.77,448.98 620.43,451.27 C620.93,452.99 625.07,603.81 625.03,618.67 C625.01,625.36 624.66,630.98 624.25,631.17 C623.21,631.63 612.52,645.95 610.99,648.93 C609.39,652.03 609.47,657.58 612.52,756.00 C613.88,799.72 614.99,839.41 614.99,844.18 C615.00,855.67 615.85,856.63 623.67,853.94 C631.98,851.08 632.15,851.15 631.80,857.22 L 631.50 862.44 L 560.00 885.17 C520.67,897.68 487.38,907.92 486.00,907.94 C484.62,907.96 483.05,907.64 482.50,907.23 ZM 736.00 828.25 C736.00,827.84 737.58,806.12 739.51,780.00 C743.86,720.88 761.80,470.92 765.97,411.12 C767.68,386.71 768.90,366.57 768.69,366.35 C768.35,366.01 725.57,352.40 690.85,341.58 C684.45,339.59 678.70,337.34 678.07,336.59 C677.16,335.48 678.26,334.59 683.72,332.00 C690.45,328.80 700.41,326.18 721.50,322.05 C727.55,320.86 733.17,319.61 734.00,319.27 C734.83,318.92 736.40,318.54 737.50,318.41 C739.54,318.17 864.93,345.60 865.81,346.47 C866.07,346.74 863.72,387.13 860.58,436.23 C845.66,669.58 840.87,744.60 839.29,769.77 L 837.57 797.04 L 817.54 803.45 C770.93,818.38 737.31,829.00 736.68,829.00 C736.30,829.00 736.00,828.66 736.00,828.25 ZM 223.50 459.17 C199.98,434.34 161.95,399.42 159.47,400.37 C158.17,400.87 157.01,379.78 157.00,355.49 L 157.00 341.47 L 205.75 331.67 C232.56,326.28 255.23,321.66 256.13,321.41 C257.10,321.13 257.94,321.65 258.23,322.72 C258.71,324.52 267.93,330.31 282.50,337.97 C286.90,340.28 290.50,342.62 290.50,343.17 C290.50,343.72 277.67,347.39 262.00,351.33 C241.61,356.46 233.50,358.90 233.50,359.90 C233.50,360.75 236.08,362.14 239.95,363.40 C245.54,365.22 246.50,365.90 247.19,368.50 C248.62,373.87 247.75,374.18 239.51,371.22 C233.98,369.23 231.74,368.82 231.20,369.67 C230.80,370.32 232.14,392.15 234.18,418.17 C238.45,472.68 238.42,472.03 236.75,471.92 C236.06,471.87 230.10,466.13 223.50,459.17 Z" fill="rgba(255,200,0,1)"/>
</g>
</svg>